<svg id="l_d_3157" xmlns="http://www.w3.org/2000/svg" xmlns:xlink="http://www.w3.org/1999/xlink" viewBox="0 0 45 45" width="45" height="45" preserveAspectRatio="xMidYMid meet" style="width: 100%; height: 100%; transform: translate3d(0px, 0px, 0px); content-visibility: visible;"><defs id="l_d_3158"><clipPath id="__lottie_element_1364"><rect id="l_d_3161" width="45" height="45" x="0" y="0"></rect></clipPath></defs><g id="l_d_3159" clip-path="url(#__lottie_element_1364)"><g id="l_d_3162" transform="matrix(1,0,0,1,-22,-17.5)" opacity="1" style="display: block;"><g id="l_d_3166" opacity="1" transform="matrix(1,0,0,1,51,40)"><path id="l_d_3167" stroke-linecap="butt" stroke-linejoin="miter" fill-opacity="0" stroke-miterlimit="4" stroke="rgb(34,34,34)" stroke-opacity="1" stroke-width="2" d=" M-1,-6 C-1,-6 1,-6 1,-6 C1.5520000457763672,-6 2,-5.552000045776367 2,-5 C2,-5 2,5 2,5 C2,5.552000045776367 1.5520000457763672,6 1,6 C1,6 -1,6 -1,6 C-1.5520000457763672,6 -2,5.552000045776367 -2,5 C-2,5 -2,-5 -2,-5 C-2,-5.552000045776367 -1.5520000457763672,-6 -1,-6z"></path></g><g id="l_d_3168" opacity="1" transform="matrix(1,0,0,1,47,40)"><path id="l_d_3169" stroke-linecap="butt" stroke-linejoin="miter" fill-opacity="0" stroke-miterlimit="4" stroke="rgb(34,34,34)" stroke-opacity="1" stroke-width="2" d=" M-1,-10 C-1,-10 1,-10 1,-10 C1.5520000457763672,-10 2,-9.552000045776367 2,-9 C2,-9 2,9 2,9 C2,9.552000045776367 1.5520000457763672,10 1,10 C1,10 -1,10 -1,10 C-1.5520000457763672,10 -2,9.552000045776367 -2,9 C-2,9 -2,-9 -2,-9 C-2,-9.552000045776367 -1.5520000457763672,-10 -1,-10z"></path></g><g id="l_d_3170" opacity="1" transform="matrix(1,0,0,1,33,40)"><path id="l_d_3171" stroke-linecap="butt" stroke-linejoin="miter" fill-opacity="0" stroke-miterlimit="4" stroke="rgb(34,34,34)" stroke-opacity="1" stroke-width="2" d=" M-1,-10 C-1,-10 1,-10 1,-10 C1.5520000457763672,-10 2,-9.552000045776367 2,-9 C2,-9 2,9 2,9 C2,9.552000045776367 1.5520000457763672,10 1,10 C1,10 -1,10 -1,10 C-1.5520000457763672,10 -2,9.552000045776367 -2,9 C-2,9 -2,-9 -2,-9 C-2,-9.552000045776367 -1.5520000457763672,-10 -1,-10z"></path></g><g id="l_d_3172" opacity="1" transform="matrix(1,0,0,1,29,40)"><path id="l_d_3173" stroke-linecap="butt" stroke-linejoin="miter" fill-opacity="0" stroke-miterlimit="4" stroke="rgb(34,34,34)" stroke-opacity="1" stroke-width="2" d=" M-1,-6 C-1,-6 1,-6 1,-6 C1.5520000457763672,-6 2,-5.552000045776367 2,-5 C2,-5 2,5 2,5 C2,5.552000045776367 1.5520000457763672,6 1,6 C1,6 -1,6 -1,6 C-1.5520000457763672,6 -2,5.552000045776367 -2,5 C-2,5 -2,-5 -2,-5 C-2,-5.552000045776367 -1.5520000457763672,-6 -1,-6z"></path></g><g id="l_d_3174" opacity="1" transform="matrix(1,0,0,1,54.5,40)"><path id="l_d_3175" stroke-linecap="butt" stroke-linejoin="miter" fill-opacity="0" stroke-miterlimit="4" stroke="rgb(34,34,34)" stroke-opacity="1" stroke-width="2" d=" M-1.5,0 C-1.5,0 1.5,0 1.5,0"></path></g><g id="l_d_3176" opacity="1" transform="matrix(1,0,0,1,40,40)"><path id="l_d_3177" stroke-linecap="butt" stroke-linejoin="miter" fill-opacity="0" stroke-miterlimit="4" stroke="rgb(34,34,34)" stroke-opacity="1" stroke-width="2" d=" M-5,0 C-5,0 5,0 5,0"></path></g><g id="l_d_3178" opacity="1" transform="matrix(1,0,0,1,25.5,40)"><path id="l_d_3179" stroke-linecap="butt" stroke-linejoin="miter" fill-opacity="0" stroke-miterlimit="4" stroke="rgb(34,34,34)" stroke-opacity="1" stroke-width="2" d=" M-1.5,0 C-1.5,0 1.5,0 1.5,0"></path></g></g></g></svg>