<svg id="l_d_2901" xmlns="http://www.w3.org/2000/svg" xmlns:xlink="http://www.w3.org/1999/xlink" viewBox="0 0 45 45" width="45" height="45" preserveAspectRatio="xMidYMid meet" style="width: 100%; height: 100%; transform: translate3d(0px, 0px, 0px); content-visibility: visible;"><defs id="l_d_2902"><clipPath id="__lottie_element_1254"><rect id="l_d_2905" width="45" height="45" x="0" y="0"></rect></clipPath><g id="__lottie_element_1274"><g id="l_d_2942" transform="matrix(1,0,0,1,-23,-19.25)" opacity="1" style="display: block;"><g id="l_d_2947" opacity="1" transform="matrix(1,0,0,1,40,44)"><path id="l_d_2948" fill="rgb(34,34,34)" fill-opacity="1" d=" M11.930999755859375,0 C11.930999755859375,0 -11.930999755859375,0 -11.930999755859375,0 C-11.930999755859375,0 -14.982999801635742,-21.448999404907227 -14.982999801635742,-21.448999404907227 C-14.982999801635742,-21.448999404907227 15.00100040435791,-21.322999954223633 15.00100040435791,-21.322999954223633 C15.00100040435791,-21.322999954223633 11.930999755859375,0 11.930999755859375,0z"></path></g></g></g><mask id="__lottie_element_1274_1" mask-type="alpha"><use id="l_d_2957" xlink:href="#__lottie_element_1274"></use></mask><g id="__lottie_element_1280"><g id="l_d_2958" transform="matrix(1,0,0,1,-23,-19.25)" opacity="1" style="display: block;"><g id="l_d_2963" opacity="1" transform="matrix(1,0,0,1,40,44)"><path id="l_d_2964" fill="rgb(34,34,34)" fill-opacity="1" d=" M11.930999755859375,0 C11.930999755859375,0 -11.930999755859375,0 -11.930999755859375,0 C-11.930999755859375,0 -14.982999801635742,-21.448999404907227 -14.982999801635742,-21.448999404907227 C-14.982999801635742,-21.448999404907227 15.00100040435791,-21.322999954223633 15.00100040435791,-21.322999954223633 C15.00100040435791,-21.322999954223633 11.930999755859375,0 11.930999755859375,0z"></path></g></g></g><mask id="__lottie_element_1280_1" mask-type="alpha"><use id="l_d_2973" xlink:href="#__lottie_element_1280"></use></mask><g id="__lottie_element_1286"><g id="l_d_2974" transform="matrix(0.7500000596046448,0,0,0.7500000596046448,-13.00000286102295,-9.25000286102295)" opacity="1" style="display: none;"><g id="l_d_2979" opacity="1" transform="matrix(1,0,0,1,40,44)"><path id="l_d_2980" fill="rgb(34,34,34)" fill-opacity="1" d=" M-14.991999626159668,10.925999641418457 C-14.991999626159668,10.925999641418457 -11.930999755859375,0 -11.930999755859375,0 C-11.930999755859375,0 11.930999755859375,0 11.930999755859375,0 C11.930999755859375,0 14.991999626159668,11.052000045776367 14.991999626159668,11.052000045776367"></path></g></g></g><filter id="__lottie_element_1292" filterUnits="objectBoundingBox" x="0%" y="0%" width="100%" height="100%"><feComponentTransfer id="l_d_2991" in="SourceGraphic"><feFuncA id="l_d_2992" type="table" tableValues="1.0 0.0"></feFuncA></feComponentTransfer></filter><mask id="__lottie_element_1286_2" mask-type="alpha"><g id="l_d_2989" filter="url(#__lottie_element_1292)"><rect id="l_d_2993" width="45" height="45" x="0" y="0" fill="#ffffff" opacity="0"></rect><use id="l_d_2994" xlink:href="#__lottie_element_1286"></use></g></mask><g id="__lottie_element_1293"><g id="l_d_2995" transform="matrix(0.7500000596046448,0,0,0.7500000596046448,-13.00000286102295,-9.25000286102295)" opacity="1" style="display: none;"><g id="l_d_3000" opacity="1" transform="matrix(1,0,0,1,40,44)"><path id="l_d_3001" fill="rgb(34,34,34)" fill-opacity="1" d=" M-14.991999626159668,10.925999641418457 C-14.991999626159668,10.925999641418457 -11.930999755859375,0 -11.930999755859375,0 C-11.930999755859375,0 11.930999755859375,0 11.930999755859375,0 C11.930999755859375,0 14.991999626159668,11.052000045776367 14.991999626159668,11.052000045776367"></path></g></g></g><filter id="__lottie_element_1299" filterUnits="objectBoundingBox" x="0%" y="0%" width="100%" height="100%"><feComponentTransfer id="l_d_3012" in="SourceGraphic"><feFuncA id="l_d_3013" type="table" tableValues="1.0 0.0"></feFuncA></feComponentTransfer></filter><mask id="__lottie_element_1293_2" mask-type="alpha"><g id="l_d_3010" filter="url(#__lottie_element_1299)"><rect id="l_d_3014" width="45" height="45" x="0" y="0" fill="#ffffff" opacity="0"></rect><use id="l_d_3015" xlink:href="#__lottie_element_1293"></use></g></mask></defs><g id="l_d_2903" clip-path="url(#__lottie_element_1254)"><g id="l_d_3016" transform="matrix(1,0,0,1,-23,-19.25)" opacity="1" style="display: block;"><g id="l_d_3020" opacity="1" transform="matrix(1,0,0,1,40,49)"><path id="l_d_3021" stroke-linecap="butt" stroke-linejoin="round" fill-opacity="0" stroke="rgb(34,34,34)" stroke-opacity="1" stroke-width="2" d=" M-12,-5 C-12,-5 12,-5 12,-5 C12,-5 12,5 12,5 C12,5 -12,5 -12,5 C-12,5 -12,-5 -12,-5z"></path></g><g id="l_d_3022" opacity="1" transform="matrix(1,0,0,1,40,44)"><path id="l_d_3023" stroke-linecap="butt" stroke-linejoin="round" fill-opacity="0" stroke="rgb(34,34,34)" stroke-opacity="1" stroke-width="2" d=" M-15,0 C-15,0 15,0 15,0"></path></g></g><g id="l_d_3003" mask="url(#__lottie_element_1293_2)" style="display: none;"><g id="l_d_3002" transform="matrix(0,0,0,0,16.495134353637695,13.9735107421875)" opacity="1"><g id="l_d_3006" opacity="1" transform="matrix(1,0,0,1,0,0)"><g id="l_d_3007" opacity="1" transform="matrix(1,0,0,1,40,41.479000091552734)"><path id="l_d_3008" stroke-linecap="butt" stroke-linejoin="miter" fill-opacity="0" stroke-miterlimit="4" stroke="rgb(34,34,34)" stroke-opacity="1" stroke-width="2" d=" M0,3.244999885559082 C1.2369999885559082,3.244999885559082 2.25,2.1760001182556152 2.25,1.0809999704360962 C2.25,-0.10899999737739563 0.7066584229469299,-1.5476168394088745 -0.7933415770530701,-3.24161696434021 C-2.293341636657715,-1.5476168394088745 -2.25,-0.10899999737739563 -2.25,1.0809999704360962 C-2.25,2.1760001182556152 -1.2369999885559082,3.244999885559082 0,3.244999885559082 C0,3.244999885559082 0,3.244999885559082 0,3.244999885559082z"></path></g></g></g></g><g id="l_d_2982" mask="url(#__lottie_element_1286_2)" style="display: none;"><g id="l_d_2981" transform="matrix(0,0,0,0,16.697080612182617,13.0647554397583)" opacity="1"><g id="l_d_2985" opacity="1" transform="matrix(1,0,0,1,0,0)"><g id="l_d_2986" opacity="1" transform="matrix(1,0,0,1,40,36.91899871826172)"><path id="l_d_2987" stroke-linecap="round" stroke-linejoin="miter" fill-opacity="0" stroke-miterlimit="4" stroke="rgb(34,34,34)" stroke-opacity="1" stroke-width="2" d=" M0,-8.11400032043457 C3.318000078201294,-6.011000156402588 6,-1.3519999980926514 6,2.0280001163482666 C6,6.085000038146973 3.0380001068115234,8.11400032043457 0,8.11400032043457 C-2.990000009536743,8.11400032043457 -6,6.5920000076293945 -6,2.0280001163482666 C-6,0.33799999952316284 -5.166999816894531,-1.690000057220459 -3.5,-4.057000160217285 C-3.5,-4.057000160217285 -2,-3.0429999828338623 -2,-3.0429999828338623 C-2,-3.0429999828338623 -1.5,-7.544000148773193 0,-8.11400032043457z"></path></g></g></g></g><g id="l_d_2966" mask="url(#__lottie_element_1280_1)" style="display: block;"><g id="l_d_2965" transform="matrix(1,0,0,1,-23,-19.250003814697266)" opacity="1"><g id="l_d_2969" opacity="1" transform="matrix(1,0,0,1,0,0)"><g id="l_d_2970" opacity="1" transform="matrix(1,0,0,1,40,41.479000091552734)"><path id="l_d_2971" stroke-linecap="butt" stroke-linejoin="miter" fill-opacity="0" stroke-miterlimit="4" stroke="rgb(34,34,34)" stroke-opacity="1" stroke-width="2" d=" M0,3.244999885559082 C1.2369999885559082,3.244999885559082 2.25,2.1760001182556152 2.25,1.0809999704360962 C2.25,-0.10899999737739563 1.5,-1.5509999990463257 0,-3.244999885559082 C-1.5,-1.5509999990463257 -2.25,-0.10899999737739563 -2.25,1.0809999704360962 C-2.25,2.1760001182556152 -1.2369999885559082,3.244999885559082 0,3.244999885559082 C0,3.244999885559082 0,3.244999885559082 0,3.244999885559082z"></path></g></g></g></g><g id="l_d_2950" mask="url(#__lottie_element_1274_1)" style="display: block;"><g id="l_d_2949" transform="matrix(1,0,0,1,-23,-19.25)" opacity="1"><g id="l_d_2953" opacity="1" transform="matrix(1,0,0,1,0,0)"><g id="l_d_2954" opacity="1" transform="matrix(1,0,0,1,40,36.91899871826172)"><path id="l_d_2955" stroke-linecap="round" stroke-linejoin="miter" fill-opacity="0" stroke-miterlimit="4" stroke="rgb(34,34,34)" stroke-opacity="1" stroke-width="2" d=" M0,-8.11400032043457 C3.318000078201294,-6.011000156402588 6,-1.3519999980926514 6,2.0280001163482666 C6,6.085000038146973 3.0380001068115234,8.11400032043457 0,8.11400032043457 C-2.990000009536743,8.11400032043457 -6,6.5920000076293945 -6,2.0280001163482666 C-6,0.33799999952316284 -5.166999816894531,-1.690000057220459 -3.5,-4.057000160217285 C-3.5,-4.057000160217285 -2,-3.0429999828338623 -2,-3.0429999828338623 C-2,-3.0429999828338623 -1.5,-7.544000148773193 0,-8.11400032043457z"></path></g></g></g></g><g id="l_d_2936" transform="matrix(0,0,0,0,18.08599853515625,-0.4510002136230469)" opacity="1" style="display: block;"><g id="l_d_2940" opacity="1" transform="matrix(1,0,0,1,-5.414000034332275,2.6740000247955322)"><path id="l_d_2941" fill="rgb(34,34,34)" fill-opacity="1" d=" M0,-0.5 C0.27595001459121704,-0.5 0.5,-0.27595001459121704 0.5,0 C0.5,0.27595001459121704 0.27595001459121704,0.5 0,0.5 C-0.27595001459121704,0.5 -0.5,0.27595001459121704 -0.5,0 C-0.5,-0.27595001459121704 -0.27595001459121704,-0.5 0,-0.5z"></path></g></g><g id="l_d_2930" transform="matrix(0,0,0,0,10.08599853515625,-1.7010002136230469)" opacity="1" style="display: block;"><g id="l_d_2934" opacity="1" transform="matrix(1,0,0,1,-5.414000034332275,2.6740000247955322)"><path id="l_d_2935" fill="rgb(34,34,34)" fill-opacity="1" d=" M0,-1 C0.5519000291824341,-1 1,-0.5519000291824341 1,0 C1,0.5519000291824341 0.5519000291824341,1 0,1 C-0.5519000291824341,1 -1,0.5519000291824341 -1,0 C-1,-0.5519000291824341 -0.5519000291824341,-1 0,-1z"></path></g></g><g id="l_d_2924" transform="matrix(0,0,0,0,24.83599853515625,-0.20100021362304688)" opacity="1" style="display: block;"><g id="l_d_2928" opacity="1" transform="matrix(1,0,0,1,-5.414000034332275,2.6740000247955322)"><path id="l_d_2929" fill="rgb(34,34,34)" fill-opacity="1" d=" M0,-1 C0.5519000291824341,-1 1,-0.5519000291824341 1,0 C1,0.5519000291824341 0.5519000291824341,1 0,1 C-0.5519000291824341,1 -1,0.5519000291824341 -1,0 C-1,-0.5519000291824341 -0.5519000291824341,-1 0,-1z"></path></g></g><g id="l_d_2918" transform="matrix(0,0,0,0,12.46099853515625,0.6739997863769531)" opacity="1" style="display: block;"><g id="l_d_2922" opacity="1" transform="matrix(1,0,0,1,-5.414000034332275,2.6740000247955322)"><path id="l_d_2923" fill="rgb(34,34,34)" fill-opacity="1" d=" M0,-0.5 C0.27595001459121704,-0.5 0.5,-0.27595001459121704 0.5,0 C0.5,0.27595001459121704 0.27595001459121704,0.5 0,0.5 C-0.27595001459121704,0.5 -0.5,0.27595001459121704 -0.5,0 C-0.5,-0.27595001459121704 -0.27595001459121704,-0.5 0,-0.5z"></path></g></g><g id="l_d_2912" transform="matrix(0,0,0,0,14.08599853515625,-4.326000213623047)" opacity="1" style="display: block;"><g id="l_d_2916" opacity="1" transform="matrix(1,0,0,1,-5.414000034332275,2.6740000247955322)"><path id="l_d_2917" fill="rgb(34,34,34)" fill-opacity="1" d=" M0,-1 C0.5519000291824341,-1 1,-0.5519000291824341 1,0 C1,0.5519000291824341 0.5519000291824341,1 0,1 C-0.5519000291824341,1 -1,0.5519000291824341 -1,0 C-1,-0.5519000291824341 -0.5519000291824341,-1 0,-1z"></path></g></g><g id="l_d_2906" transform="matrix(0,0,0,0,17.71099853515625,-5.201000213623047)" opacity="1" style="display: block;"><g id="l_d_2910" opacity="1" transform="matrix(1,0,0,1,-5.414000034332275,2.6740000247955322)"><path id="l_d_2911" fill="rgb(34,34,34)" fill-opacity="1" d=" M0,-1 C0.5519000291824341,-1 1,-0.5519000291824341 1,0 C1,0.5519000291824341 0.5519000291824341,1 0,1 C-0.5519000291824341,1 -1,0.5519000291824341 -1,0 C-1,-0.5519000291824341 -0.5519000291824341,-1 0,-1z"></path></g></g></g></svg>