<svg id="l_d_3661" xmlns="http://www.w3.org/2000/svg" xmlns:xlink="http://www.w3.org/1999/xlink" viewBox="0 0 45 45" width="45" height="45" preserveAspectRatio="xMidYMid meet" style="width: 100%; height: 100%; transform: translate3d(0px, 0px, 0px); content-visibility: visible;"><defs id="l_d_3662"><clipPath id="__lottie_element_1592"><rect id="l_d_3665" width="45" height="45" x="0" y="0"></rect></clipPath><g id="__lottie_element_1595"><g id="l_d_3666" style="display: none;" transform="matrix(1,0,0,1,-22.625,-17.5)" opacity="1"><g id="l_d_3671" opacity="1" transform="matrix(1,0,0,1,40,40)"><path id="l_d_3672" fill="rgb(255,0,0)" fill-opacity="1" d=" M-10.01273250579834,-11.930644989013672 C-10.01273250579834,-11.930644989013672 10.01273250579834,-11.930644989013672 10.01273250579834,-11.930644989013672 C12.221733093261719,-11.930644989013672 14.01273250579834,-10.144818305969238 14.01273250579834,-7.942202091217041 C14.01273250579834,-7.942202091217041 14.009292602539062,-16.14258575439453 14.009292602539062,-16.14258575439453 C14.009292602539062,-13.939969062805176 12.218293190002441,-12.154145240783691 10.009292602539062,-12.154145240783691 C10.009292602539062,-12.154145240783691 -10.014361381530762,-12.154145240783691 -10.014361381530762,-12.154145240783691 C-12.22336196899414,-12.154145240783691 -14.014361381530762,-13.939969062805176 -14.014361381530762,-16.14258575439453 C-14.014361381530762,-16.14258575439453 -14.01273250579834,-7.942202091217041 -14.01273250579834,-7.942202091217041 C-14.01273250579834,-10.144818305969238 -12.221733093261719,-11.930644989013672 -10.01273250579834,-11.930644989013672z"></path></g></g></g><mask id="__lottie_element_1595_1" mask-type="alpha"><use id="l_d_3685" xlink:href="#__lottie_element_1595"></use></mask><g id="__lottie_element_1610"><g id="l_d_3704" style="display: none;" transform="matrix(1,0,0,1,-22.625,-17.5)" opacity="1"><g id="l_d_3709" opacity="1" transform="matrix(1,0,0,1,40,40)"><path id="l_d_3710" fill="rgb(255,0,0)" fill-opacity="1" d=" M-10.01273250579834,-11.930644989013672 C-10.01273250579834,-11.930644989013672 10.01273250579834,-11.930644989013672 10.01273250579834,-11.930644989013672 C12.221733093261719,-11.930644989013672 14.01273250579834,-10.144818305969238 14.01273250579834,-7.942202091217041 C14.01273250579834,-7.942202091217041 14.009292602539062,-16.14258575439453 14.009292602539062,-16.14258575439453 C14.009292602539062,-13.939969062805176 12.218293190002441,-12.154145240783691 10.009292602539062,-12.154145240783691 C10.009292602539062,-12.154145240783691 -10.014361381530762,-12.154145240783691 -10.014361381530762,-12.154145240783691 C-12.22336196899414,-12.154145240783691 -14.014361381530762,-13.939969062805176 -14.014361381530762,-16.14258575439453 C-14.014361381530762,-16.14258575439453 -14.01273250579834,-7.942202091217041 -14.01273250579834,-7.942202091217041 C-14.01273250579834,-10.144818305969238 -12.221733093261719,-11.930644989013672 -10.01273250579834,-11.930644989013672z"></path></g></g></g><mask id="__lottie_element_1610_1" mask-type="alpha"><use id="l_d_3718" xlink:href="#__lottie_element_1610"></use></mask></defs><g id="l_d_3663" clip-path="url(#__lottie_element_1592)"><g id="l_d_3712" mask="url(#__lottie_element_1610_1)" style="display: none;"><g id="l_d_3711" transform="matrix(1,0,0,1,-22.625,-17.5)" opacity="1"><g id="l_d_3715" opacity="1" transform="matrix(1,0,0,1,40,40)"><path id="l_d_3716" stroke-linecap="butt" stroke-linejoin="miter" fill-opacity="0" stroke-miterlimit="4" stroke="rgb(34,34,34)" stroke-opacity="1" stroke-width="2" d=" M-10,-12 C-10,-12 10,-12 10,-12 C12.208999633789062,-12 14,-10.208999633789062 14,-8 C14,-8 14,8 14,8 C14,10.208999633789062 12.208999633789062,12 10,12 C10,12 -10,12 -10,12 C-12.208999633789062,12 -14,10.208999633789062 -14,8 C-14,8 -14,-8 -14,-8 C-14,-10.208999633789062 -12.208999633789062,-12 -10,-12z"></path></g></g></g><g id="l_d_3698" transform="matrix(1,0,0,1,-22.625,-17.5)" opacity="1" style="display: block;"><g id="l_d_3702" opacity="1" transform="matrix(1,0,0,1,40,40)"><path id="l_d_3703" stroke-linecap="butt" stroke-linejoin="miter" fill-opacity="0" stroke-miterlimit="4" stroke="rgb(34,34,34)" stroke-opacity="1" stroke-width="2" d=" M-10,-12 C-10,-12 10,-12 10,-12 C12.208999633789062,-12 14,-10.208999633789062 14,-8 C14,-8 14,8 14,8 C14,10.208999633789062 12.208999633789062,12 10,12 C10,12 -10,12 -10,12 C-12.208999633789062,12 -14,10.208999633789062 -14,8 C-14,8 -14,-8 -14,-8 C-14,-10.208999633789062 -12.208999633789062,-12 -10,-12z"></path></g></g><g id="l_d_3692" transform="matrix(0.9391547441482544,0,0,0.9391547441482544,-20.191192626953125,-15.066192626953125)" opacity="1" style="display: none;"><g id="l_d_3696" opacity="1" transform="matrix(1,0,0,1,40,40)"><path id="l_d_3697" stroke-linecap="butt" stroke-linejoin="miter" fill-opacity="0" stroke-miterlimit="4" stroke="rgb(34,34,34)" stroke-opacity="1" stroke-width="2" d=" M-2,11.436676025390625 C-2,11.436676025390625 -2,11.661874771118164 -2,11.661874771118164 C-2,11.661874771118164 2,11.661874771118164 2,11.661874771118164 C2,11.661874771118164 2,11.436676025390625 2,11.436676025390625 C2,11.436676025390625 6,11.436676025390625 6,11.436676025390625 C6,11.436676025390625 6.134549617767334,11.211477279663086 6.134549617767334,11.211477279663086 C6.134549617767334,11.211477279663086 2.215114116668701,11.211477279663086 2.215114116668701,11.211477279663086 C2.215114116668701,11.211477279663086 2.3498358726501465,10.985450744628906 2.3498358726501465,10.985450744628906 C2.3498358726501465,10.985450744628906 -2.3498358726501465,10.985450744628906 -2.3498358726501465,10.985450744628906 C-2.3498358726501465,10.985450744628906 -2.215114116668701,11.211477279663086 -2.215114116668701,11.211477279663086 C-2.215114116668701,11.211477279663086 -6.134549617767334,11.211477279663086 -6.134549617767334,11.211477279663086 C-6.134549617767334,11.211477279663086 -6,11.436676025390625 -6,11.436676025390625 C-6,11.436676025390625 -2,11.436676025390625 -2,11.436676025390625z"></path></g></g><g id="l_d_3686" transform="matrix(1,0,0,1,-22.625,-17.5)" opacity="1" style="display: block;"><g id="l_d_3690" opacity="1" transform="matrix(1,0,0,1,40,40)"><path id="l_d_3691" stroke-linecap="butt" stroke-linejoin="miter" fill-opacity="0" stroke-miterlimit="4" stroke="rgb(34,34,34)" stroke-opacity="1" stroke-width="2" d=" M-2,2 C-2.062000036239624,2.875 -2,6 -2,6 C-2,6 2,6 2,6 C2,6 2,2 2,2 C2,2 6,2 6,2 C6,2 6,-2 6,-2 C6,-2 2,-2 2,-2 C2,-2 2,-6 2,-6 C2,-6 -2,-6 -2,-6 C-2,-6 -2,-2 -2,-2 C-2,-2 -6,-2 -6,-2 C-6,-2 -6,2 -6,2 C-6,2 -3,1.937999963760376 -2,2z"></path></g></g><g id="l_d_3674" mask="url(#__lottie_element_1595_1)" style="display: none;"><g id="l_d_3673" transform="matrix(1,0,0,1,-62.625,-57.5)" opacity="1"><g id="l_d_3677" opacity="1" transform="matrix(1,0,0,1,0,0)"><g id="l_d_3678" opacity="1" transform="matrix(1,0,0,1,80,80)"><path id="l_d_3679" stroke-linecap="butt" stroke-linejoin="round" fill-opacity="0" stroke="rgb(34,34,34)" stroke-opacity="1" stroke-width="2" d=" M-3,-4 C-3,-4 3,-4 3,-4 C3,-4 3,4 3,4 C3,4 -3,4 -3,4 C-3,4 -3,-4 -3,-4z"></path></g><g id="l_d_3680" opacity="1" transform="matrix(1,0,0,1,80,80)"><path id="l_d_3681" stroke-linecap="butt" stroke-linejoin="round" fill-opacity="0" stroke="rgb(34,34,34)" stroke-opacity="1" stroke-width="2" d=" M-11,-4 C-11,-4 11,-4 11,-4 C11,-4 11,4 11,4 C11,4 -11,4 -11,4 C-11,4 -11,-4 -11,-4z"></path></g><g id="l_d_3682" opacity="1" transform="matrix(1,0,0,1,80,80)"><path id="l_d_3683" fill="rgb(34,34,34)" fill-opacity="1" d=" M-7,-1 C-6.447999954223633,-1 -6,-0.5519999861717224 -6,0 C-6,0.5519999861717224 -6.447999954223633,1 -7,1 C-7.552000045776367,1 -8,0.5519999861717224 -8,0 C-8,-0.5519999861717224 -7.552000045776367,-1 -7,-1z M7,-1 C7.552000045776367,-1 8,-0.5519999861717224 8,0 C8,0.5519999861717224 7.552000045776367,1 7,1 C6.447999954223633,1 6,0.5519999861717224 6,0 C6,-0.5519999861717224 6.447999954223633,-1 7,-1z"></path></g></g></g></g></g></svg>