<svg id="l_d_2375" xmlns="http://www.w3.org/2000/svg" xmlns:xlink="http://www.w3.org/1999/xlink" viewBox="0 0 45 45" width="45" height="45" preserveAspectRatio="xMidYMid meet" style="width: 100%; height: 100%; transform: translate3d(0px, 0px, 0px); content-visibility: visible;"><defs id="l_d_2376"><clipPath id="__lottie_element_1067"><rect id="l_d_2379" width="45" height="45" x="0" y="0"></rect></clipPath><g id="__lottie_element_1078"><g id="l_d_2413" style="display: none;" transform="matrix(1,0,0,1,-23.5,-17.5)" opacity="1"><g id="l_d_2418" opacity="1" transform="matrix(1,0,0,1,40,40)"><path id="l_d_2419" fill="rgb(255,0,0)" fill-opacity="1" d=" M-12.297738075256348,-5.511716842651367 C-12.297738075256348,-5.511716842651367 12.296765327453613,-5.511716842651367 12.296765327453613,-5.511716842651367 C12.84876537322998,-5.511716842651367 13.296765327453613,-5.092906951904297 13.296765327453613,-4.574962139129639 C13.296765327453613,-4.574962139129639 12.978593826293945,-4.243261814117432 12.978593826293945,-4.243261814117432 C12.978593826293945,-3.7253170013427734 12.530593872070312,-3.306507110595703 11.978593826293945,-3.306507110595703 C11.978593826293945,-3.306507110595703 -12.021406173706055,-3.306507110595703 -12.021406173706055,-3.306507110595703 C-12.573406219482422,-3.306507110595703 -13.021406173706055,-3.7253170013427734 -13.021406173706055,-4.243261814117432 C-13.021406173706055,-4.243261814117432 -13.297738075256348,-4.574962139129639 -13.297738075256348,-4.574962139129639 C-13.297738075256348,-5.092906951904297 -12.849738121032715,-5.511716842651367 -12.297738075256348,-5.511716842651367z"></path></g></g></g><mask id="__lottie_element_1078_1" mask-type="alpha"><use id="l_d_2427" xlink:href="#__lottie_element_1078"></use></mask><g id="__lottie_element_1084"><g id="l_d_2428" style="display: none;" transform="matrix(1,0,0,1,-23.5,-17.5)" opacity="1"><g id="l_d_2433" opacity="1" transform="matrix(1,0,0,1,40,40)"><path id="l_d_2434" fill="rgb(255,0,0)" fill-opacity="1" d=" M-20.01460075378418,-4.1991400718688965 C-20.01460075378418,-4.1991400718688965 18.32352638244629,-4.139787197113037 18.32352638244629,-4.139787197113037 C18.875526428222656,-4.139787197113037 19.32352638244629,-3.7209770679473877 19.32352638244629,-3.2030320167541504 C19.32352638244629,-3.2030320167541504 19.66796875,-18.05596923828125 19.66796875,-18.05596923828125 C19.66796875,-17.53802490234375 19.219968795776367,-17.11921501159668 18.66796875,-17.11921501159668 C18.66796875,-17.11921501159668 -22.967655181884766,-17.11921501159668 -22.967655181884766,-17.11921501159668 C-23.519655227661133,-17.11921501159668 -23.967655181884766,-17.53802490234375 -23.967655181884766,-18.05596923828125 C-23.967655181884766,-18.05596923828125 -21.01460075378418,-3.2614119052886963 -21.01460075378418,-3.2614119052886963 C-21.01460075378418,-3.7793569564819336 -20.566600799560547,-4.1991400718688965 -20.01460075378418,-4.1991400718688965z"></path></g></g></g><mask id="__lottie_element_1084_1" mask-type="alpha"><use id="l_d_2453" xlink:href="#__lottie_element_1084"></use></mask></defs><g id="l_d_2377" clip-path="url(#__lottie_element_1067)"><g id="l_d_2454" transform="matrix(0.8531209826469421,0,0,0.8531209826469421,-17.624839782714844,-11.624839782714844)" opacity="1" style="display: none;"><g id="l_d_2458" opacity="1" transform="matrix(1,0,0,1,40,40)"></g><g id="l_d_2459" opacity="1" transform="matrix(1,0,0,1,40,40)"><path id="l_d_2460" stroke-linecap="butt" stroke-linejoin="miter" fill-opacity="0" stroke-miterlimit="4" stroke="rgb(34,34,34)" stroke-opacity="1" stroke-width="2" d=" M-12,-13 C-12,-13 12,-13 12,-13 C12.552000045776367,-13 13,-12.552000045776367 13,-12 C13,-12 13,12 13,12 C13,12.552000045776367 12.552000045776367,13 12,13 C12,13 -12,13 -12,13 C-12.552000045776367,13 -13,12.552000045776367 -13,12 C-13,12 -13,-12 -13,-12 C-13,-12.552000045776367 -12.552000045776367,-13 -12,-13z"></path></g><g id="l_d_2461" opacity="1" transform="matrix(1,0,0,1,40,35)"><path id="l_d_2462" stroke-linecap="butt" stroke-linejoin="miter" fill-opacity="0" stroke-miterlimit="4" stroke="rgb(34,34,34)" stroke-opacity="1" stroke-width="2" d=" M13,0 C13,0 -13,0 -13,0"></path></g><g id="l_d_2463" opacity="1" transform="matrix(1,0,0,1,49,31)"><path id="l_d_2464" fill="rgb(0,0,0)" fill-opacity="1" d=" M0,-1 C0.5519999861717224,-1 1,-0.5519999861717224 1,0 C1,0.5519999861717224 0.5519999861717224,1 0,1 C-0.5519999861717224,1 -1,0.5519999861717224 -1,0 C-1,-0.5519999861717224 -0.5519999861717224,-1 0,-1z"></path></g><g id="l_d_2465" opacity="1" transform="matrix(1,0,0,1,43,31)"><path id="l_d_2466" fill="rgb(0,0,0)" fill-opacity="1" d=" M0,-1 C0.5519999861717224,-1 1,-0.5519999861717224 1,0 C1,0.5519999861717224 0.5519999861717224,1 0,1 C-0.5519999861717224,1 -1,0.5519999861717224 -1,0 C-1,-0.5519999861717224 -0.5519999861717224,-1 0,-1z"></path></g><g id="l_d_2467" opacity="1" transform="matrix(1,0,0,1,37,31)"><path id="l_d_2468" fill="rgb(0,0,0)" fill-opacity="1" d=" M0,-1 C0.5519999861717224,-1 1,-0.5519999861717224 1,0 C1,0.5519999861717224 0.5519999861717224,1 0,1 C-0.5519999861717224,1 -1,0.5519999861717224 -1,0 C-1,-0.5519999861717224 -0.5519999861717224,-1 0,-1z"></path></g><g id="l_d_2469" opacity="1" transform="matrix(1,0,0,1,31,31)"><path id="l_d_2470" fill="rgb(0,0,0)" fill-opacity="1" d=" M0,-1 C0.5519999861717224,-1 1,-0.5519999861717224 1,0 C1,0.5519999861717224 0.5519999861717224,1 0,1 C-0.5519999861717224,1 -1,0.5519999861717224 -1,0 C-1,-0.5519999861717224 -0.5519999861717224,-1 0,-1z"></path></g></g><g id="l_d_2436" mask="url(#__lottie_element_1084_1)" style="display: none;"><g id="l_d_2435" transform="matrix(1,0,0,1,-23.5,-17.5)" opacity="1"><g id="l_d_2439" opacity="1" transform="matrix(1,0,0,1,40,40)"></g><g id="l_d_2440" opacity="1" transform="matrix(1,0,0,1,40,40)"><path id="l_d_2441" stroke-linecap="butt" stroke-linejoin="miter" fill-opacity="0" stroke-miterlimit="4" stroke="rgb(34,34,34)" stroke-opacity="1" stroke-width="2" d=" M-12,-13 C-12,-13 12,-13 12,-13 C12.552000045776367,-13 13,-12.552000045776367 13,-12 C13,-12 13,12 13,12 C13,12.552000045776367 12.552000045776367,13 12,13 C12,13 -12,13 -12,13 C-12.552000045776367,13 -13,12.552000045776367 -13,12 C-13,12 -13,-12 -13,-12 C-13,-12.552000045776367 -12.552000045776367,-13 -12,-13z"></path></g><g id="l_d_2442" opacity="1" transform="matrix(1,0,0,1,40,35)"><path id="l_d_2443" stroke-linecap="butt" stroke-linejoin="miter" fill-opacity="0" stroke-miterlimit="4" stroke="rgb(34,34,34)" stroke-opacity="1" stroke-width="2" d=" M13,0 C13,0 -13,0 -13,0"></path></g><g id="l_d_2444" opacity="1" transform="matrix(1,0,0,1,49,31)"><path id="l_d_2445" fill="rgb(0,0,0)" fill-opacity="1" d=" M0,-1 C0.5519999861717224,-1 1,-0.5519999861717224 1,0 C1,0.5519999861717224 0.5519999861717224,1 0,1 C-0.5519999861717224,1 -1,0.5519999861717224 -1,0 C-1,-0.5519999861717224 -0.5519999861717224,-1 0,-1z"></path></g><g id="l_d_2446" opacity="1" transform="matrix(1,0,0,1,43,31)"><path id="l_d_2447" fill="rgb(0,0,0)" fill-opacity="1" d=" M0,-1 C0.5519999861717224,-1 1,-0.5519999861717224 1,0 C1,0.5519999861717224 0.5519999861717224,1 0,1 C-0.5519999861717224,1 -1,0.5519999861717224 -1,0 C-1,-0.5519999861717224 -0.5519999861717224,-1 0,-1z"></path></g><g id="l_d_2448" opacity="1" transform="matrix(1,0,0,1,37,31)"><path id="l_d_2449" fill="rgb(0,0,0)" fill-opacity="1" d=" M0,-1 C0.5519999861717224,-1 1,-0.5519999861717224 1,0 C1,0.5519999861717224 0.5519999861717224,1 0,1 C-0.5519999861717224,1 -1,0.5519999861717224 -1,0 C-1,-0.5519999861717224 -0.5519999861717224,-1 0,-1z"></path></g><g id="l_d_2450" opacity="1" transform="matrix(1,0,0,1,31,31)"><path id="l_d_2451" fill="rgb(0,0,0)" fill-opacity="1" d=" M0,-1 C0.5519999861717224,-1 1,-0.5519999861717224 1,0 C1,0.5519999861717224 0.5519999861717224,1 0,1 C-0.5519999861717224,1 -1,0.5519999861717224 -1,0 C-1,-0.5519999861717224 -0.5519999861717224,-1 0,-1z"></path></g></g></g><g id="l_d_2421" mask="url(#__lottie_element_1078_1)" style="display: none;"><g id="l_d_2420" transform="matrix(1,0,0,1,-23.5,-15.999000549316406)" opacity="1"><g id="l_d_2424" opacity="1" transform="matrix(1,0,0,1,33.5,43.5)"><path id="l_d_2425" stroke-linecap="butt" stroke-linejoin="round" fill-opacity="0" stroke="rgb(34,34,34)" stroke-opacity="1" stroke-width="2" d=" M1.4390000104904175,-5.216000080108643 C1.4390000104904175,-5.216000080108643 11.713000297546387,-5.216000080108643 11.713000297546387,-5.216000080108643 C14.218000411987305,-5.216000080108643 16.30500030517578,-3.2950000762939453 16.51300048828125,-0.7990000247955322 C16.51300048828125,-0.7990000247955322 16.614999771118164,0.42800000309944153 16.614999771118164,0.42800000309944153 C16.75,2.0480000972747803 15.545000076293945,3.4719998836517334 13.925000190734863,3.6070001125335693 C13.843999862670898,3.614000082015991 13.762999534606934,3.617000102996826 13.680999755859375,3.617000102996826 C13.680999755859375,3.617000102996826 -0.5289999842643738,3.617000102996826 -0.5289999842643738,3.617000102996826 C-2.1549999713897705,3.617000102996826 -3.4730000495910645,2.2990000247955322 -3.4730000495910645,0.6729999780654907 C-3.4730000495910645,0.5910000205039978 -3.4700000286102295,0.5090000033378601 -3.4630000591278076,0.42800000309944153 C-3.4630000591278076,0.42800000309944153 -3.3610000610351562,-0.7990000247955322 -3.3610000610351562,-0.7990000247955322 C-3.1530001163482666,-3.2950000762939453 -1.065999984741211,-5.216000080108643 1.4390000104904175,-5.216000080108643z M5.104000091552734,-5.216000080108643 C5.104000091552734,-5.216000080108643 7.311999797821045,-1.534999966621399 7.311999797821045,-1.534999966621399 M9.520000457763672,-5.216000080108643 C9.520000457763672,-5.216000080108643 11.727999687194824,-1.534999966621399 11.727999687194824,-1.534999966621399 M0.6880000233650208,-5.216000080108643 C0.6880000233650208,-5.216000080108643 2.8959999084472656,-1.534999966621399 2.8959999084472656,-1.534999966621399"></path></g></g></g><g id="l_d_2396" transform="matrix(1,0,0,1,-23.5,-17.5)" opacity="1" style="display: block;"><g id="l_d_2400" opacity="1" transform="matrix(1,0,0,1,40,40)"></g><g id="l_d_2401" opacity="1" transform="matrix(1,0,0,1,40,40)"><path id="l_d_2402" stroke-linecap="butt" stroke-linejoin="miter" fill-opacity="0" stroke-miterlimit="4" stroke="rgb(34,34,34)" stroke-opacity="1" stroke-width="2" d=" M-12,-13 C-12,-13 12,-13 12,-13 C12.552000045776367,-13 13,-12.552000045776367 13,-12 C13,-12 13,12 13,12 C13,12.552000045776367 12.552000045776367,13 12,13 C12,13 -12,13 -12,13 C-12.552000045776367,13 -13,12.552000045776367 -13,12 C-13,12 -13,-12 -13,-12 C-13,-12.552000045776367 -12.552000045776367,-13 -12,-13z"></path></g><g id="l_d_2403" opacity="1" transform="matrix(1,0,0,1,40,35)"><path id="l_d_2404" stroke-linecap="butt" stroke-linejoin="miter" fill-opacity="0" stroke-miterlimit="4" stroke="rgb(34,34,34)" stroke-opacity="1" stroke-width="2" d=" M13,0 C13,0 -13,0 -13,0"></path></g><g id="l_d_2405" opacity="1" transform="matrix(1,0,0,1,49,31)"><path id="l_d_2406" fill="rgb(0,0,0)" fill-opacity="1" d=" M0,-1 C0.5519999861717224,-1 1,-0.5519999861717224 1,0 C1,0.5519999861717224 0.5519999861717224,1 0,1 C-0.5519999861717224,1 -1,0.5519999861717224 -1,0 C-1,-0.5519999861717224 -0.5519999861717224,-1 0,-1z"></path></g><g id="l_d_2407" opacity="1" transform="matrix(1,0,0,1,43,31)"><path id="l_d_2408" fill="rgb(0,0,0)" fill-opacity="1" d=" M0,-1 C0.5519999861717224,-1 1,-0.5519999861717224 1,0 C1,0.5519999861717224 0.5519999861717224,1 0,1 C-0.5519999861717224,1 -1,0.5519999861717224 -1,0 C-1,-0.5519999861717224 -0.5519999861717224,-1 0,-1z"></path></g><g id="l_d_2409" opacity="1" transform="matrix(1,0,0,1,37,31)"><path id="l_d_2410" fill="rgb(0,0,0)" fill-opacity="1" d=" M0,-1 C0.5519999861717224,-1 1,-0.5519999861717224 1,0 C1,0.5519999861717224 0.5519999861717224,1 0,1 C-0.5519999861717224,1 -1,0.5519999861717224 -1,0 C-1,-0.5519999861717224 -0.5519999861717224,-1 0,-1z"></path></g><g id="l_d_2411" opacity="1" transform="matrix(1,0,0,1,31,31)"><path id="l_d_2412" fill="rgb(0,0,0)" fill-opacity="1" d=" M0,-1 C0.5519999861717224,-1 1,-0.5519999861717224 1,0 C1,0.5519999861717224 0.5519999861717224,1 0,1 C-0.5519999861717224,1 -1,0.5519999861717224 -1,0 C-1,-0.5519999861717224 -0.5519999861717224,-1 0,-1z"></path></g></g><g id="l_d_2388" transform="matrix(1,0,0,1,-23.5,-17.5)" opacity="1" style="display: block;"><g id="l_d_2392" opacity="1" transform="matrix(1,0,0,1,40,44)"><path id="l_d_2393" stroke-linecap="butt" stroke-linejoin="miter" fill-opacity="0" stroke-miterlimit="4" stroke="rgb(34,34,34)" stroke-opacity="1" stroke-width="2" d="M0 0"></path></g><g id="l_d_2394" opacity="1" transform="matrix(1,0,0,1,40,40)"><path id="l_d_2395" stroke-linecap="butt" stroke-linejoin="miter" fill-opacity="0" stroke-miterlimit="4" stroke="rgb(34,34,34)" stroke-opacity="1" stroke-width="2" d=" M-9,-1 C-9,-1 9,-1 9,-1 C9,-1 9,9 9,9 C9,9 -9,9 -9,9 C-9,9 -9,-1 -9,-1z M-12,-4.997000217437744 C-12,-4.997000217437744 12,-4.997000217437744 12,-4.997000217437744 C12.552000045776367,-4.997000217437744 13,-4.548999786376953 13,-3.996999979019165 C13,-3.996999979019165 13,12 13,12 C13,12.552000045776367 12.552000045776367,13 12,13 C12,13 -12,13 -12,13 C-12.552000045776367,13 -13,12.552000045776367 -13,12 C-13,12 -13,-3.996999979019165 -13,-3.996999979019165 C-13,-4.548999786376953 -12.552000045776367,-4.997000217437744 -12,-4.997000217437744z"></path></g></g><g id="l_d_2380" transform="matrix(0.8531209826469421,0,0,0.8531209826469421,-17.624839782714844,-11.624839782714844)" opacity="1" style="display: none;"><g id="l_d_2384" opacity="1" transform="matrix(1,0,0,1,40,44)"><path id="l_d_2385" stroke-linecap="butt" stroke-linejoin="miter" fill-opacity="0" stroke-miterlimit="4" stroke="rgb(34,34,34)" stroke-opacity="1" stroke-width="2" d=" M-9,-5 C-9,-5 9,-5 9,-5 C9,-5 9,5 9,5 C9,5 -9,5 -9,5 C-9,5 -9,-5 -9,-5z"></path></g><g id="l_d_2386" opacity="1" transform="matrix(1,0,0,1,40,35)"><path id="l_d_2387" stroke-linecap="butt" stroke-linejoin="miter" fill-opacity="0" stroke-miterlimit="4" stroke="rgb(34,34,34)" stroke-opacity="1" stroke-width="2" d=" M13,0 C13,0 -13,0 -13,0"></path></g></g></g></svg>