<svg id="l_d_3432" xmlns="http://www.w3.org/2000/svg" xmlns:xlink="http://www.w3.org/1999/xlink" viewBox="0 0 45 45" width="45" height="45" preserveAspectRatio="xMidYMid meet" style="width: 100%; height: 100%; transform: translate3d(0px, 0px, 0px); content-visibility: visible;"><defs id="l_d_3433"><clipPath id="__lottie_element_1497"><rect id="l_d_3436" width="45" height="45" x="0" y="0"></rect></clipPath><clipPath id="__lottie_element_1539"><path id="l_d_3531" d="M0,0 L80,0 L80,80 L0,80z"></path></clipPath><g id="__lottie_element_1542"><g id="l_d_3534" style="display: none;" transform="matrix(1,0,0,1,40,41)" opacity="1"><g id="l_d_3539" opacity="1" transform="matrix(1,0,0,1,-1.2990000247955322,3.5290000438690186)"><path id="l_d_3540" fill="rgb(255,255,255)" fill-opacity="1" d=" M3.325500011444092,-11.168000221252441 C3.325500011444092,-11.168000221252441 3.325500011444092,11.168000221252441 3.325500011444092,11.168000221252441 C3.325500011444092,11.168000221252441 -3.325500011444092,11.168000221252441 -3.325500011444092,11.168000221252441 C-3.325500011444092,11.168000221252441 -3.325500011444092,-11.168000221252441 -3.325500011444092,-11.168000221252441 C-3.325500011444092,-11.168000221252441 3.325500011444092,-11.168000221252441 3.325500011444092,-11.168000221252441z"></path></g></g></g><mask id="__lottie_element_1542_1" mask-type="alpha"><use id="l_d_3548" xlink:href="#__lottie_element_1542"></use></mask><clipPath id="__lottie_element_1549"><path id="l_d_3551" fill="#ffffff" clip-rule="nonzero" d=" M41.37099838256836,34.875 C41.37099838256836,34.875 35,34.875 35,34.875 C35,34.875 35,57.104000091552734 35,57.104000091552734 C35,57.104000091552734 41.37099838256836,57.104000091552734 41.37099838256836,57.104000091552734 C41.37099838256836,57.104000091552734 41.37099838256836,34.875 41.37099838256836,34.875" fill-opacity="1"></path></clipPath><clipPath id="__lottie_element_1552"><path id="l_d_3560" d="M0,0 L80,0 L80,80 L0,80z"></path></clipPath><g id="__lottie_element_1555"><g id="l_d_3563" style="display: none;" transform="matrix(1,0,0,1,40,41)" opacity="1"><g id="l_d_3568" opacity="1" transform="matrix(1,0,0,1,-1.2990000247955322,3.5290000438690186)"><path id="l_d_3569" fill="rgb(255,255,255)" fill-opacity="1" d=" M3.325500011444092,-11.168000221252441 C3.325500011444092,-11.168000221252441 3.325500011444092,11.168000221252441 3.325500011444092,11.168000221252441 C3.325500011444092,11.168000221252441 -3.325500011444092,11.168000221252441 -3.325500011444092,11.168000221252441 C-3.325500011444092,11.168000221252441 -3.325500011444092,-11.168000221252441 -3.325500011444092,-11.168000221252441 C-3.325500011444092,-11.168000221252441 3.325500011444092,-11.168000221252441 3.325500011444092,-11.168000221252441z"></path></g></g></g><mask id="__lottie_element_1555_1" mask-type="alpha"><use id="l_d_3577" xlink:href="#__lottie_element_1555"></use></mask><clipPath id="__lottie_element_1562"><path id="l_d_3580" fill="#ffffff" clip-rule="nonzero" d=" M41.37099838256836,34.875 C41.37099838256836,34.875 35,34.875 35,34.875 C35,34.875 35,57.104000091552734 35,57.104000091552734 C35,57.104000091552734 41.37099838256836,57.104000091552734 41.37099838256836,57.104000091552734 C41.37099838256836,57.104000091552734 41.37099838256836,34.875 41.37099838256836,34.875" fill-opacity="1"></path></clipPath><clipPath id="__lottie_element_1565"><path id="l_d_3589" d="M0,0 L80,0 L80,80 L0,80z"></path></clipPath><g id="__lottie_element_1568"><g id="l_d_3592" style="display: none;" transform="matrix(1,0,0,1,40,41)" opacity="1"><g id="l_d_3597" opacity="1" transform="matrix(1,0,0,1,-1.2990000247955322,3.5290000438690186)"><path id="l_d_3598" fill="rgb(255,255,255)" fill-opacity="1" d=" M3.325500011444092,-11.168000221252441 C3.325500011444092,-11.168000221252441 3.325500011444092,11.168000221252441 3.325500011444092,11.168000221252441 C3.325500011444092,11.168000221252441 -3.325500011444092,11.168000221252441 -3.325500011444092,11.168000221252441 C-3.325500011444092,11.168000221252441 -3.325500011444092,-11.168000221252441 -3.325500011444092,-11.168000221252441 C-3.325500011444092,-11.168000221252441 3.325500011444092,-11.168000221252441 3.325500011444092,-11.168000221252441z"></path></g></g></g><mask id="__lottie_element_1568_1" mask-type="alpha"><use id="l_d_3606" xlink:href="#__lottie_element_1568"></use></mask><clipPath id="__lottie_element_1575"><path id="l_d_3609" fill="#ffffff" clip-rule="nonzero" d=" M41.37099838256836,34.875 C41.37099838256836,34.875 35,34.875 35,34.875 C35,34.875 35,57.104000091552734 35,57.104000091552734 C35,57.104000091552734 41.37099838256836,57.104000091552734 41.37099838256836,57.104000091552734 C41.37099838256836,57.104000091552734 41.37099838256836,34.875 41.37099838256836,34.875" fill-opacity="1"></path></clipPath></defs><g id="l_d_3434" clip-path="url(#__lottie_element_1497)"><g id="l_d_3615" transform="matrix(1,0,0,1,-26,-17.25)" opacity="1" style="display: block;"><g id="l_d_3619" opacity="1" transform="matrix(1,0,0,1,36.5,40.5)"><path id="l_d_3620" stroke-linecap="butt" stroke-linejoin="miter" fill-opacity="0" stroke-miterlimit="4" stroke="rgb(34,34,34)" stroke-opacity="1" stroke-width="2" d=" M7.5,-10.5 C7.5,-10.5 7.5,-12.5 7.5,-12.5 C7.5,-13.604999542236328 6.605000019073486,-14.5 5.5,-14.5 C5.5,-14.5 -5.5,-14.5 -5.5,-14.5 C-6.605000019073486,-14.5 -7.5,-13.604999542236328 -7.5,-12.5 C-7.5,-12.5 -7.5,14.5 -7.5,14.5 C-7.5,14.5 -7.5,14.5 -7.5,14.5"></path></g><g id="l_d_3621" opacity="1" transform="matrix(1,0,0,1,44,32)"><path id="l_d_3622" stroke-linecap="butt" stroke-linejoin="round" fill-opacity="0" stroke="rgb(34,34,34)" stroke-opacity="1" stroke-width="2" d=" M6,-2 C6,-2 -6,-2 -6,-2 C-6,-2 -6,2 -6,2 C-6,2 6,2 6,2 C6,2 6,-2 6,-2z"></path></g><g id="l_d_3623" opacity="1" transform="matrix(1,0,0,1,44,34)"><path id="l_d_3624" stroke-linecap="butt" stroke-linejoin="round" fill-opacity="0" stroke="rgb(34,34,34)" stroke-opacity="1" stroke-width="2" d=" M-9,0 C-9,0 9,0 9,0"></path></g></g><g id="l_d_3586" clip-path="url(#__lottie_element_1565)" transform="matrix(1,0,0,1,-26,-17.25)" opacity="1" style="display: block;"><g id="l_d_3607" clip-path="url(#__lottie_element_1575)" transform="matrix(1,0,0,1,0,0)" opacity="1" style="display: block;"><g id="l_d_3612" opacity="1" transform="matrix(1,0,0,1,0,0)"><g id="l_d_3613" opacity="1" transform="matrix(1,0,0,1,39,54)"><path id="l_d_3614" fill="rgb(34,34,34)" fill-opacity="1" d=" M5,-17 C4.447999954223633,-17 4,-16.552000045776367 4,-16 C4,-15.447999954223633 4.447999954223633,-15 5,-15 C5.552000045776367,-15 6,-15.447999954223633 6,-16 C6,-16.552000045776367 5.552000045776367,-17 5,-17z M0,-17 C-0.5519999861717224,-17 -1,-16.552000045776367 -1,-16 C-1,-15.447999954223633 -0.5519999861717224,-15 0,-15 C0.5519999861717224,-15 1,-15.447999954223633 1,-16 C1,-16.552000045776367 0.5519999861717224,-17 0,-17z M10,-17 C9.447999954223633,-17 9,-16.552000045776367 9,-16 C9,-15.447999954223633 9.447999954223633,-15 10,-15 C10.552000045776367,-15 11,-15.447999954223633 11,-16 C11,-16.552000045776367 10.552000045776367,-17 10,-17z M5,-13 C4.447999954223633,-13 4,-12.552000045776367 4,-12 C4,-11.447999954223633 4.447999954223633,-11 5,-11 C5.552000045776367,-11 6,-11.447999954223633 6,-12 C6,-12.552000045776367 5.552000045776367,-13 5,-13z M10,-13 C9.447999954223633,-13 9,-12.552000045776367 9,-12 C9,-11.447999954223633 9.447999954223633,-11 10,-11 C10.552000045776367,-11 11,-11.447999954223633 11,-12 C11,-12.552000045776367 10.552000045776367,-13 10,-13z M0,-13 C-0.5519999861717224,-13 -1,-12.552000045776367 -1,-12 C-1,-11.447999954223633 -0.5519999861717224,-11 0,-11 C0.5519999861717224,-11 1,-11.447999954223633 1,-12 C1,-12.552000045776367 0.5519999861717224,-13 0,-13z M5,-9 C4.447999954223633,-9 4,-8.552000045776367 4,-8 C4,-7.447999954223633 4.447999954223633,-7 5,-7 C5.552000045776367,-7 6,-7.447999954223633 6,-8 C6,-8.552000045776367 5.552000045776367,-9 5,-9z M10,-9 C9.447999954223633,-9 9,-8.552000045776367 9,-8 C9,-7.447999954223633 9.447999954223633,-7 10,-7 C10.552000045776367,-7 11,-7.447999954223633 11,-8 C11,-8.552000045776367 10.552000045776367,-9 10,-9z M0,-9 C-0.5519999861717224,-9 -1,-8.552000045776367 -1,-8 C-1,-7.447999954223633 -0.5519999861717224,-7 0,-7 C0.5519999861717224,-7 1,-7.447999954223633 1,-8 C1,-8.552000045776367 0.5519999861717224,-9 0,-9z M5,-5 C4.447999954223633,-5 4,-4.552000045776367 4,-4 C4,-3.447999954223633 4.447999954223633,-3 5,-3 C5.552000045776367,-3 6,-3.447999954223633 6,-4 C6,-4.552000045776367 5.552000045776367,-5 5,-5z M10,-5 C9.447999954223633,-5 9,-4.552000045776367 9,-4 C9,-3.447999954223633 9.447999954223633,-3 10,-3 C10.552000045776367,-3 11,-3.447999954223633 11,-4 C11,-4.552000045776367 10.552000045776367,-5 10,-5z M0,-5 C-0.5519999861717224,-5 -1,-4.552000045776367 -1,-4 C-1,-3.447999954223633 -0.5519999861717224,-3 0,-3 C0.5519999861717224,-3 1,-3.447999954223633 1,-4 C1,-4.552000045776367 0.5519999861717224,-5 0,-5z M5,-1 C4.447999954223633,-1 4,-0.5519999861717224 4,0 C4,0.5519999861717224 4.447999954223633,1 5,1 C5.552000045776367,1 6,0.5519999861717224 6,0 C6,-0.5519999861717224 5.552000045776367,-1 5,-1z M10,-1 C9.447999954223633,-1 9,-0.5519999861717224 9,0 C9,0.5519999861717224 9.447999954223633,1 10,1 C10.552000045776367,1 11,0.5519999861717224 11,0 C11,-0.5519999861717224 10.552000045776367,-1 10,-1z M0,-1 C-0.5519999861717224,-1 -1,-0.5519999861717224 -1,0 C-1,0.5519999861717224 -0.5519999861717224,1 0,1 C0.5519999861717224,1 1,0.5519999861717224 1,0 C1,-0.5519999861717224 0.5519999861717224,-1 0,-1z"></path></g></g></g><g id="l_d_3600" mask="url(#__lottie_element_1568_1)" style="display: block;"><g id="l_d_3599" transform="matrix(1,0,0,1,40,64.91400146484375)" opacity="1"><g id="l_d_3603" opacity="1" transform="matrix(1,0,0,1,0,0)"><path id="l_d_3604" stroke-linecap="round" stroke-linejoin="miter" fill-opacity="0" stroke-miterlimit="4" stroke-dasharray=" 0.1 4" stroke-dashoffset="6" stroke="rgb(34,34,34)" stroke-opacity="1" stroke-width="2" d=" M-1.00600004196167,-29.00200080871582 C-1.00600004196167,-29.00200080871582 -1.0119999647140503,30.87299919128418 -1.0119999647140503,30.87299919128418"></path></g></g></g></g><g id="l_d_3557" clip-path="url(#__lottie_element_1552)" transform="matrix(1,0,0,1,-21,-17.25)" opacity="1" style="display: block;"><g id="l_d_3578" clip-path="url(#__lottie_element_1562)" transform="matrix(1,0,0,1,0,0)" opacity="1" style="display: block;"><g id="l_d_3583" opacity="1" transform="matrix(1,0,0,1,0,0)"><g id="l_d_3584" opacity="1" transform="matrix(1,0,0,1,39,54)"><path id="l_d_3585" fill="rgb(34,34,34)" fill-opacity="1" d=" M5,-17 C4.447999954223633,-17 4,-16.552000045776367 4,-16 C4,-15.447999954223633 4.447999954223633,-15 5,-15 C5.552000045776367,-15 6,-15.447999954223633 6,-16 C6,-16.552000045776367 5.552000045776367,-17 5,-17z M0,-17 C-0.5519999861717224,-17 -1,-16.552000045776367 -1,-16 C-1,-15.447999954223633 -0.5519999861717224,-15 0,-15 C0.5519999861717224,-15 1,-15.447999954223633 1,-16 C1,-16.552000045776367 0.5519999861717224,-17 0,-17z M10,-17 C9.447999954223633,-17 9,-16.552000045776367 9,-16 C9,-15.447999954223633 9.447999954223633,-15 10,-15 C10.552000045776367,-15 11,-15.447999954223633 11,-16 C11,-16.552000045776367 10.552000045776367,-17 10,-17z M5,-13 C4.447999954223633,-13 4,-12.552000045776367 4,-12 C4,-11.447999954223633 4.447999954223633,-11 5,-11 C5.552000045776367,-11 6,-11.447999954223633 6,-12 C6,-12.552000045776367 5.552000045776367,-13 5,-13z M10,-13 C9.447999954223633,-13 9,-12.552000045776367 9,-12 C9,-11.447999954223633 9.447999954223633,-11 10,-11 C10.552000045776367,-11 11,-11.447999954223633 11,-12 C11,-12.552000045776367 10.552000045776367,-13 10,-13z M0,-13 C-0.5519999861717224,-13 -1,-12.552000045776367 -1,-12 C-1,-11.447999954223633 -0.5519999861717224,-11 0,-11 C0.5519999861717224,-11 1,-11.447999954223633 1,-12 C1,-12.552000045776367 0.5519999861717224,-13 0,-13z M5,-9 C4.447999954223633,-9 4,-8.552000045776367 4,-8 C4,-7.447999954223633 4.447999954223633,-7 5,-7 C5.552000045776367,-7 6,-7.447999954223633 6,-8 C6,-8.552000045776367 5.552000045776367,-9 5,-9z M10,-9 C9.447999954223633,-9 9,-8.552000045776367 9,-8 C9,-7.447999954223633 9.447999954223633,-7 10,-7 C10.552000045776367,-7 11,-7.447999954223633 11,-8 C11,-8.552000045776367 10.552000045776367,-9 10,-9z M0,-9 C-0.5519999861717224,-9 -1,-8.552000045776367 -1,-8 C-1,-7.447999954223633 -0.5519999861717224,-7 0,-7 C0.5519999861717224,-7 1,-7.447999954223633 1,-8 C1,-8.552000045776367 0.5519999861717224,-9 0,-9z M5,-5 C4.447999954223633,-5 4,-4.552000045776367 4,-4 C4,-3.447999954223633 4.447999954223633,-3 5,-3 C5.552000045776367,-3 6,-3.447999954223633 6,-4 C6,-4.552000045776367 5.552000045776367,-5 5,-5z M10,-5 C9.447999954223633,-5 9,-4.552000045776367 9,-4 C9,-3.447999954223633 9.447999954223633,-3 10,-3 C10.552000045776367,-3 11,-3.447999954223633 11,-4 C11,-4.552000045776367 10.552000045776367,-5 10,-5z M0,-5 C-0.5519999861717224,-5 -1,-4.552000045776367 -1,-4 C-1,-3.447999954223633 -0.5519999861717224,-3 0,-3 C0.5519999861717224,-3 1,-3.447999954223633 1,-4 C1,-4.552000045776367 0.5519999861717224,-5 0,-5z M5,-1 C4.447999954223633,-1 4,-0.5519999861717224 4,0 C4,0.5519999861717224 4.447999954223633,1 5,1 C5.552000045776367,1 6,0.5519999861717224 6,0 C6,-0.5519999861717224 5.552000045776367,-1 5,-1z M10,-1 C9.447999954223633,-1 9,-0.5519999861717224 9,0 C9,0.5519999861717224 9.447999954223633,1 10,1 C10.552000045776367,1 11,0.5519999861717224 11,0 C11,-0.5519999861717224 10.552000045776367,-1 10,-1z M0,-1 C-0.5519999861717224,-1 -1,-0.5519999861717224 -1,0 C-1,0.5519999861717224 -0.5519999861717224,1 0,1 C0.5519999861717224,1 1,0.5519999861717224 1,0 C1,-0.5519999861717224 0.5519999861717224,-1 0,-1z"></path></g></g></g><g id="l_d_3571" mask="url(#__lottie_element_1555_1)" style="display: block;"><g id="l_d_3570" transform="matrix(1,0,0,1,40,64.91400146484375)" opacity="1"><g id="l_d_3574" opacity="1" transform="matrix(1,0,0,1,0,0)"><path id="l_d_3575" stroke-linecap="round" stroke-linejoin="miter" fill-opacity="0" stroke-miterlimit="4" stroke-dasharray=" 0.1 4" stroke-dashoffset="6" stroke="rgb(34,34,34)" stroke-opacity="1" stroke-width="2" d=" M-1.00600004196167,-29.00200080871582 C-1.00600004196167,-29.00200080871582 -1.0119999647140503,30.87299919128418 -1.0119999647140503,30.87299919128418"></path></g></g></g></g><g id="l_d_3528" clip-path="url(#__lottie_element_1539)" transform="matrix(1,0,0,1,-16.08300018310547,-17.25)" opacity="1" style="display: block;"><g id="l_d_3549" clip-path="url(#__lottie_element_1549)" transform="matrix(1,0,0,1,0,0)" opacity="1" style="display: block;"><g id="l_d_3554" opacity="1" transform="matrix(1,0,0,1,0,0)"><g id="l_d_3555" opacity="1" transform="matrix(1,0,0,1,39,54)"><path id="l_d_3556" fill="rgb(34,34,34)" fill-opacity="1" d=" M5,-17 C4.447999954223633,-17 4,-16.552000045776367 4,-16 C4,-15.447999954223633 4.447999954223633,-15 5,-15 C5.552000045776367,-15 6,-15.447999954223633 6,-16 C6,-16.552000045776367 5.552000045776367,-17 5,-17z M0,-17 C-0.5519999861717224,-17 -1,-16.552000045776367 -1,-16 C-1,-15.447999954223633 -0.5519999861717224,-15 0,-15 C0.5519999861717224,-15 1,-15.447999954223633 1,-16 C1,-16.552000045776367 0.5519999861717224,-17 0,-17z M10,-17 C9.447999954223633,-17 9,-16.552000045776367 9,-16 C9,-15.447999954223633 9.447999954223633,-15 10,-15 C10.552000045776367,-15 11,-15.447999954223633 11,-16 C11,-16.552000045776367 10.552000045776367,-17 10,-17z M5,-13 C4.447999954223633,-13 4,-12.552000045776367 4,-12 C4,-11.447999954223633 4.447999954223633,-11 5,-11 C5.552000045776367,-11 6,-11.447999954223633 6,-12 C6,-12.552000045776367 5.552000045776367,-13 5,-13z M10,-13 C9.447999954223633,-13 9,-12.552000045776367 9,-12 C9,-11.447999954223633 9.447999954223633,-11 10,-11 C10.552000045776367,-11 11,-11.447999954223633 11,-12 C11,-12.552000045776367 10.552000045776367,-13 10,-13z M0,-13 C-0.5519999861717224,-13 -1,-12.552000045776367 -1,-12 C-1,-11.447999954223633 -0.5519999861717224,-11 0,-11 C0.5519999861717224,-11 1,-11.447999954223633 1,-12 C1,-12.552000045776367 0.5519999861717224,-13 0,-13z M5,-9 C4.447999954223633,-9 4,-8.552000045776367 4,-8 C4,-7.447999954223633 4.447999954223633,-7 5,-7 C5.552000045776367,-7 6,-7.447999954223633 6,-8 C6,-8.552000045776367 5.552000045776367,-9 5,-9z M10,-9 C9.447999954223633,-9 9,-8.552000045776367 9,-8 C9,-7.447999954223633 9.447999954223633,-7 10,-7 C10.552000045776367,-7 11,-7.447999954223633 11,-8 C11,-8.552000045776367 10.552000045776367,-9 10,-9z M0,-9 C-0.5519999861717224,-9 -1,-8.552000045776367 -1,-8 C-1,-7.447999954223633 -0.5519999861717224,-7 0,-7 C0.5519999861717224,-7 1,-7.447999954223633 1,-8 C1,-8.552000045776367 0.5519999861717224,-9 0,-9z M5,-5 C4.447999954223633,-5 4,-4.552000045776367 4,-4 C4,-3.447999954223633 4.447999954223633,-3 5,-3 C5.552000045776367,-3 6,-3.447999954223633 6,-4 C6,-4.552000045776367 5.552000045776367,-5 5,-5z M10,-5 C9.447999954223633,-5 9,-4.552000045776367 9,-4 C9,-3.447999954223633 9.447999954223633,-3 10,-3 C10.552000045776367,-3 11,-3.447999954223633 11,-4 C11,-4.552000045776367 10.552000045776367,-5 10,-5z M0,-5 C-0.5519999861717224,-5 -1,-4.552000045776367 -1,-4 C-1,-3.447999954223633 -0.5519999861717224,-3 0,-3 C0.5519999861717224,-3 1,-3.447999954223633 1,-4 C1,-4.552000045776367 0.5519999861717224,-5 0,-5z M5,-1 C4.447999954223633,-1 4,-0.5519999861717224 4,0 C4,0.5519999861717224 4.447999954223633,1 5,1 C5.552000045776367,1 6,0.5519999861717224 6,0 C6,-0.5519999861717224 5.552000045776367,-1 5,-1z M10,-1 C9.447999954223633,-1 9,-0.5519999861717224 9,0 C9,0.5519999861717224 9.447999954223633,1 10,1 C10.552000045776367,1 11,0.5519999861717224 11,0 C11,-0.5519999861717224 10.552000045776367,-1 10,-1z M0,-1 C-0.5519999861717224,-1 -1,-0.5519999861717224 -1,0 C-1,0.5519999861717224 -0.5519999861717224,1 0,1 C0.5519999861717224,1 1,0.5519999861717224 1,0 C1,-0.5519999861717224 0.5519999861717224,-1 0,-1z"></path></g></g></g><g id="l_d_3542" mask="url(#__lottie_element_1542_1)" style="display: block;"><g id="l_d_3541" transform="matrix(1,0,0,1,40,64.91400146484375)" opacity="1"><g id="l_d_3545" opacity="1" transform="matrix(1,0,0,1,0,0)"><path id="l_d_3546" stroke-linecap="round" stroke-linejoin="miter" fill-opacity="0" stroke-miterlimit="4" stroke-dasharray=" 0.1 4" stroke-dashoffset="6" stroke="rgb(34,34,34)" stroke-opacity="1" stroke-width="2" d=" M-1.00600004196167,-29.00200080871582 C-1.00600004196167,-29.00200080871582 -1.0119999647140503,30.87299919128418 -1.0119999647140503,30.87299919128418"></path></g></g></g></g><g id="l_d_3521" transform="matrix(0,0,0,0,6.517858982086182,36.17009735107422)" opacity="1" style="display: none;"><g id="l_d_3525" opacity="1" transform="matrix(1,0,0,1,0,0)"><g id="l_d_3526" opacity="1" transform="matrix(1,0,0,1,39,54)"><path id="l_d_3527" fill="rgb(34,34,34)" fill-opacity="1" d=" M0,-1 C-0.5519999861717224,-1 -1,-0.5519999861717224 -1,0 C-1,0.5519999861717224 -0.5519999861717224,1 0,1 C0.5519999861717224,1 1,0.5519999861717224 1,0 C1,-0.5519999861717224 0.5519999861717224,-1 0,-1z"></path></g></g></g><g id="l_d_3514" transform="matrix(0,0,0,0,5.875,34)" opacity="1" style="display: none;"><g id="l_d_3518" opacity="1" transform="matrix(1,0,0,1,0,0)"><g id="l_d_3519" opacity="1" transform="matrix(1,0,0,1,39,54)"><path id="l_d_3520" fill="rgb(34,34,34)" fill-opacity="1" d=" M0,-1 C-0.5519999861717224,-1 -1,-0.5519999861717224 -1,0 C-1,0.5519999861717224 -0.5519999861717224,1 0,1 C0.5519999861717224,1 1,0.5519999861717224 1,0 C1,-0.5519999861717224 0.5519999861717224,-1 0,-1z"></path></g></g></g><g id="l_d_3507" transform="matrix(0,0,0,0,4.875,36.75)" opacity="1" style="display: none;"><g id="l_d_3511" opacity="1" transform="matrix(1,0,0,1,0,0)"><g id="l_d_3512" opacity="1" transform="matrix(1,0,0,1,39,54)"><path id="l_d_3513" fill="rgb(34,34,34)" fill-opacity="1" d=" M0,-1 C-0.5519999861717224,-1 -1,-0.5519999861717224 -1,0 C-1,0.5519999861717224 -0.5519999861717224,1 0,1 C0.5519999861717224,1 1,0.5519999861717224 1,0 C1,-0.5519999861717224 0.5519999861717224,-1 0,-1z"></path></g></g></g><g id="l_d_3500" transform="matrix(0,0,0,0,7.625,30.25)" opacity="1" style="display: none;"><g id="l_d_3504" opacity="1" transform="matrix(1,0,0,1,0,0)"><g id="l_d_3505" opacity="1" transform="matrix(1,0,0,1,39,54)"><path id="l_d_3506" fill="rgb(34,34,34)" fill-opacity="1" d=" M0,-1 C-0.5519999861717224,-1 -1,-0.5519999861717224 -1,0 C-1,0.5519999861717224 -0.5519999861717224,1 0,1 C0.5519999861717224,1 1,0.5519999861717224 1,0 C1,-0.5519999861717224 0.5519999861717224,-1 0,-1z"></path></g></g></g><g id="l_d_3493" transform="matrix(0,0,0,0,6.5,36.18699645996094)" opacity="1" style="display: none;"><g id="l_d_3497" opacity="1" transform="matrix(1,0,0,1,0,0)"><g id="l_d_3498" opacity="1" transform="matrix(1,0,0,1,39,54)"><path id="l_d_3499" fill="rgb(34,34,34)" fill-opacity="1" d=" M0,-1 C-0.5519999861717224,-1 -1,-0.5519999861717224 -1,0 C-1,0.5519999861717224 -0.5519999861717224,1 0,1 C0.5519999861717224,1 1,0.5519999861717224 1,0 C1,-0.5519999861717224 0.5519999861717224,-1 0,-1z"></path></g></g></g><g id="l_d_3486" transform="matrix(0,0,0,0,29.992666244506836,36.17009735107422)" opacity="1" style="display: none;"><g id="l_d_3490" opacity="1" transform="matrix(1,0,0,1,0,0)"><g id="l_d_3491" opacity="1" transform="matrix(1,0,0,1,39,54)"><path id="l_d_3492" fill="rgb(34,34,34)" fill-opacity="1" d=" M0,-1 C-0.5519999861717224,-1 -1,-0.5519999861717224 -1,0 C-1,0.5519999861717224 -0.5519999861717224,1 0,1 C0.5519999861717224,1 1,0.5519999861717224 1,0 C1,-0.5519999861717224 0.5519999861717224,-1 0,-1z"></path></g></g></g><g id="l_d_3479" transform="matrix(0,0,0,0,29.692001342773438,27.533000946044922)" opacity="1" style="display: none;"><g id="l_d_3483" opacity="1" transform="matrix(1,0,0,1,0,0)"><g id="l_d_3484" opacity="1" transform="matrix(1,0,0,1,39,54)"><path id="l_d_3485" fill="rgb(34,34,34)" fill-opacity="1" d=" M0,-1 C-0.5519999861717224,-1 -1,-0.5519999861717224 -1,0 C-1,0.5519999861717224 -0.5519999861717224,1 0,1 C0.5519999861717224,1 1,0.5519999861717224 1,0 C1,-0.5519999861717224 0.5519999861717224,-1 0,-1z"></path></g></g></g><g id="l_d_3472" transform="matrix(0,0,0,0,30.727996826171875,36.625)" opacity="1" style="display: none;"><g id="l_d_3476" opacity="1" transform="matrix(1,0,0,1,0,0)"><g id="l_d_3477" opacity="1" transform="matrix(1,0,0,1,39,54)"><path id="l_d_3478" fill="rgb(34,34,34)" fill-opacity="1" d=" M0,-1 C-0.5519999861717224,-1 -1,-0.5519999861717224 -1,0 C-1,0.5519999861717224 -0.5519999861717224,1 0,1 C0.5519999861717224,1 1,0.5519999861717224 1,0 C1,-0.5519999861717224 0.5519999861717224,-1 0,-1z"></path></g></g></g><g id="l_d_3465" transform="matrix(0,0,0,0,32.06199645996094,30.686996459960938)" opacity="1" style="display: none;"><g id="l_d_3469" opacity="1" transform="matrix(1,0,0,1,0,0)"><g id="l_d_3470" opacity="1" transform="matrix(1,0,0,1,39,54)"><path id="l_d_3471" fill="rgb(34,34,34)" fill-opacity="1" d=" M0,-1 C-0.5519999861717224,-1 -1,-0.5519999861717224 -1,0 C-1,0.5519999861717224 -0.5519999861717224,1 0,1 C0.5519999861717224,1 1,0.5519999861717224 1,0 C1,-0.5519999861717224 0.5519999861717224,-1 0,-1z"></path></g></g></g><g id="l_d_3458" transform="matrix(0,0,0,0,29.436996459960938,27.312000274658203)" opacity="1" style="display: none;"><g id="l_d_3462" opacity="1" transform="matrix(1,0,0,1,0,0)"><g id="l_d_3463" opacity="1" transform="matrix(1,0,0,1,39,54)"><path id="l_d_3464" fill="rgb(34,34,34)" fill-opacity="1" d=" M0,-1 C-0.5519999861717224,-1 -1,-0.5519999861717224 -1,0 C-1,0.5519999861717224 -0.5519999861717224,1 0,1 C0.5519999861717224,1 1,0.5519999861717224 1,0 C1,-0.5519999861717224 0.5519999861717224,-1 0,-1z"></path></g></g></g><g id="l_d_3451" transform="matrix(0,0,0,0,13.364300727844238,29.248769760131836)" opacity="1" style="display: none;"><g id="l_d_3455" opacity="1" transform="matrix(1,0,0,1,0,0)"><g id="l_d_3456" opacity="1" transform="matrix(1,0,0,1,39,54)"><path id="l_d_3457" fill="rgb(34,34,34)" fill-opacity="1" d=" M0,-1 C-0.5519999861717224,-1 -1,-0.5519999861717224 -1,0 C-1,0.5519999861717224 -0.5519999861717224,1 0,1 C0.5519999861717224,1 1,0.5519999861717224 1,0 C1,-0.5519999861717224 0.5519999861717224,-1 0,-1z"></path></g></g></g><g id="l_d_3444" transform="matrix(0,0,0,0,23.041000366210938,30.561996459960938)" opacity="1" style="display: none;"><g id="l_d_3448" opacity="1" transform="matrix(1,0,0,1,0,0)"><g id="l_d_3449" opacity="1" transform="matrix(1,0,0,1,39,54)"><path id="l_d_3450" fill="rgb(34,34,34)" fill-opacity="1" d=" M0,-1 C-0.5519999861717224,-1 -1,-0.5519999861717224 -1,0 C-1,0.5519999861717224 -0.5519999861717224,1 0,1 C0.5519999861717224,1 1,0.5519999861717224 1,0 C1,-0.5519999861717224 0.5519999861717224,-1 0,-1z"></path></g></g></g><g id="l_d_3437" transform="matrix(0,0,0,0,26.811996459960938,27.75)" opacity="1" style="display: none;"><g id="l_d_3441" opacity="1" transform="matrix(1,0,0,1,0,0)"><g id="l_d_3442" opacity="1" transform="matrix(1,0,0,1,39,54)"><path id="l_d_3443" fill="rgb(34,34,34)" fill-opacity="1" d=" M0,-1 C-0.5519999861717224,-1 -1,-0.5519999861717224 -1,0 C-1,0.5519999861717224 -0.5519999861717224,1 0,1 C0.5519999861717224,1 1,0.5519999861717224 1,0 C1,-0.5519999861717224 0.5519999861717224,-1 0,-1z"></path></g></g></g></g></svg>